<svg width="20" height="20" viewBox="0 0 20 20" fill="none" xmlns="http://www.w3.org/2000/svg">
    <mask id="mask0_2866_698" style="mask-type:luminance" maskUnits="userSpaceOnUse" x="0" y="0" width="20" height="20">
        <path fill-rule="evenodd" clip-rule="evenodd" d="M0 0.000200272H19.9596V19.95H0V0.000200272Z" fill="white" />
    </mask>
    <g mask="url(#mask0_2866_698)">
        <path fill-rule="evenodd" clip-rule="evenodd"
            d="M5.65 1.5C3.129 1.5 1.5 3.227 1.5 5.899V14.051C1.5 16.724 3.129 18.45 5.65 18.45H14.3C16.827 18.45 18.46 16.724 18.46 14.051V5.899C18.46 3.227 16.827 1.5 14.3 1.5H5.65ZM14.3 19.95H5.65C2.27 19.95 0 17.579 0 14.051V5.899C0 2.371 2.27 0 5.65 0H14.3C17.685 0 19.96 2.371 19.96 5.899V14.051C19.96 17.579 17.685 19.95 14.3 19.95Z"
            fill="#AFB1B6" />
    </g>
    <path fill-rule="evenodd" clip-rule="evenodd"
        d="M3.28126 15.1804C3.09526 15.1804 2.91026 15.1124 2.76526 14.9744C2.46426 14.6904 2.45226 14.2144 2.73726 13.9154L4.26526 12.3024C5.07426 11.4434 6.43926 11.4014 7.30226 12.2114L8.26026 13.1834C8.52726 13.4534 8.96126 13.4584 9.22926 13.1944C9.33026 13.0754 11.5083 10.4304 11.5083 10.4304C11.9223 9.9284 12.5063 9.6184 13.1553 9.5544C13.8053 9.4974 14.4363 9.6864 14.9393 10.0994C14.9823 10.1344 15.0213 10.1684 17.2173 12.4234C17.5063 12.7194 17.5013 13.1944 17.2043 13.4834C16.9083 13.7744 16.4323 13.7654 16.1433 13.4694C16.1433 13.4694 14.0943 11.3664 13.9483 11.2244C13.7933 11.0974 13.5443 11.0234 13.2993 11.0474C13.0503 11.0724 12.8263 11.1914 12.6673 11.3844C10.3433 14.2034 10.3153 14.2304 10.2773 14.2674C9.41926 15.1094 8.03426 15.0954 7.19126 14.2354C7.19126 14.2354 6.26126 13.2914 6.24526 13.2724C6.01426 13.0584 5.60226 13.0724 5.35526 13.3334L3.82526 14.9464C3.67726 15.1024 3.47926 15.1804 3.28126 15.1804Z"
        fill="#AFB1B6" />
    <path fill-rule="evenodd" clip-rule="evenodd"
        d="M6.55769 6.1289C6.00469 6.1289 5.55469 6.5789 5.55469 7.1329C5.55469 7.6869 6.00469 8.1379 6.55869 8.1379C7.11269 8.1379 7.56369 7.6869 7.56369 7.1329C7.56369 6.5799 7.11269 6.1299 6.55769 6.1289ZM6.55869 9.6379C5.17769 9.6379 4.05469 8.5139 4.05469 7.1329C4.05469 5.7519 5.17769 4.6289 6.55869 4.6289C7.94069 4.6299 9.06369 5.7539 9.06369 7.1329C9.06369 8.5139 7.93969 9.6379 6.55869 9.6379Z"
        fill="#AFB1B6" />
</svg>