<svg width="330" height="237" viewBox="0 0 330 237" fill="none" xmlns="http://www.w3.org/2000/svg">
    <path
        d="M269.872 0H66.8934C57.5516 0 49.9785 7.57306 49.9785 16.9149V219.894C49.9785 229.236 57.5516 236.809 66.8934 236.809H269.872C279.214 236.809 286.787 229.236 286.787 219.894V16.9149C286.787 7.57306 279.214 0 269.872 0Z"
        fill="url(#paint0_linear_2803_3469)" />
    <g filter="url(#filter0_d_2803_3469)">
        <path
            d="M242.809 16.9149H14.4574C9.78653 16.9149 6 20.7014 6 25.3724V67.6596C6 72.3305 9.78653 76.1171 14.4574 76.1171H242.809C247.48 76.1171 251.266 72.3305 251.266 67.6596V25.3724C251.266 20.7014 247.48 16.9149 242.809 16.9149Z"
            fill="white" />
    </g>
    <path
        d="M122.713 30.4468H78.7346C75.9321 30.4468 73.6602 32.7188 73.6602 35.5213C73.6602 38.3239 75.9321 40.5958 78.7346 40.5958H122.713C125.516 40.5958 127.788 38.3239 127.788 35.5213C127.788 32.7188 125.516 30.4468 122.713 30.4468Z"
        fill="#B4DAFF" />
    <path
        d="M153.16 52.4363H78.7346C75.9321 52.4363 73.6602 54.7082 73.6602 57.5107C73.6602 60.3133 75.9321 62.5852 78.7346 62.5852H153.16C155.963 62.5852 158.235 60.3133 158.235 57.5107C158.235 54.7082 155.963 52.4363 153.16 52.4363Z"
        fill="#DEE9FC" />
    <path
        d="M51.6719 21.9894H19.5336C14.8627 21.9894 11.0762 25.7759 11.0762 30.4468V62.5851C11.0762 67.2561 14.8627 71.0426 19.5336 71.0426H51.6719C56.3429 71.0426 60.1294 67.2561 60.1294 62.5851V30.4468C60.1294 25.7759 56.3429 21.9894 51.6719 21.9894Z"
        fill="#1485FD" />
    <path
        d="M31.749 52.0641H35.132L35.1692 50.7616C35.1692 49.0498 36.2484 48.6033 37.7741 48.1195C39.3046 47.6841 40.6517 46.7623 41.6118 45.4934C42.5719 44.2245 43.0927 42.6775 43.0955 41.0863C43.129 40.1148 42.9605 39.1469 42.6006 38.2439C42.2407 37.3409 41.6972 36.5224 41.0046 35.8404C40.3121 35.1583 39.4854 34.6274 38.577 34.2813C37.6686 33.9352 36.6983 33.7815 35.7274 33.8298C34.7014 33.8074 33.6815 33.9937 32.7296 34.3773C31.7777 34.761 30.9137 35.334 30.1899 36.0615C29.4661 36.7891 28.8976 37.6561 28.519 38.61C28.1404 39.5639 27.9594 40.5847 27.9871 41.6106H31.4851C31.4719 41.0442 31.5718 40.4808 31.779 39.9535C31.9863 39.4261 32.2967 38.9455 32.6922 38.5397C33.0876 38.1338 33.56 37.811 34.0818 37.5902C34.6036 37.3693 35.1642 37.2548 35.7308 37.2534C36.2417 37.2237 36.7531 37.3045 37.2301 37.4901C37.7071 37.6756 38.1385 37.9617 38.4951 38.3289C38.8517 38.6961 39.125 39.1357 39.2966 39.6179C39.4681 40.1001 39.5338 40.6136 39.4893 41.1235C39.4668 41.9488 39.1798 42.745 38.6706 43.3948C38.1614 44.0447 37.457 44.5138 36.6611 44.7331L35.4331 45.2203C34.2308 45.51 33.1811 46.2406 32.4919 47.2675C31.8028 48.2943 31.5243 49.5426 31.7118 50.765L31.749 52.0641ZM33.4236 60.1054C33.7549 60.1172 34.0851 60.0624 34.3949 59.9443C34.7046 59.8263 34.9875 59.6473 35.2269 59.418C35.4663 59.1887 35.6573 58.9138 35.7885 58.6094C35.9198 58.305 35.9888 57.9774 35.9913 57.646C35.9883 57.3148 35.9191 56.9876 35.7876 56.6836C35.6561 56.3796 35.465 56.1051 35.2257 55.8761C34.9864 55.6472 34.7036 55.4685 34.3941 55.3507C34.0846 55.2328 33.7546 55.1782 33.4236 55.1899C33.0926 55.1782 32.7626 55.2328 32.4531 55.3507C32.1436 55.4685 31.8608 55.6472 31.6215 55.8761C31.3822 56.1051 31.1911 56.3796 31.0596 56.6836C30.9281 56.9876 30.8589 57.3148 30.8559 57.646C30.8584 57.9774 30.9273 58.305 31.0586 58.6094C31.1899 58.9138 31.3809 59.1887 31.6203 59.418C31.8597 59.6473 32.1426 59.8263 32.4523 59.9443C32.7621 60.0624 33.0923 60.1172 33.4236 60.1054Z"
        fill="white" />
    <g filter="url(#filter1_d_2803_3469)">
        <path
            d="M87.1918 89.6489H315.543C317.786 89.6489 319.937 90.54 321.523 92.1261C323.109 93.7121 324 95.8633 324 98.1064V140.394C324 142.637 323.109 144.788 321.523 146.374C319.937 147.96 317.786 148.851 315.543 148.851H87.1918C84.9488 148.851 82.7976 147.96 81.2115 146.374C79.6254 144.788 78.7344 142.637 78.7344 140.394V98.1064C78.7344 95.8633 79.6254 93.7121 81.2115 92.1261C82.7976 90.54 84.9488 89.6489 87.1918 89.6489V89.6489Z"
            fill="white" />
    </g>
    <path
        d="M195.448 103.181H151.469C148.666 103.181 146.395 105.453 146.395 108.255C146.395 111.058 148.666 113.33 151.469 113.33H195.448C198.25 113.33 200.522 111.058 200.522 108.255C200.522 105.453 198.25 103.181 195.448 103.181Z"
        fill="#B4DAFF" />
    <path
        d="M225.895 125.17H151.469C148.666 125.17 146.395 127.442 146.395 130.245C146.395 133.047 148.666 135.319 151.469 135.319H225.895C228.697 135.319 230.969 133.047 230.969 130.245C230.969 127.442 228.697 125.17 225.895 125.17Z"
        fill="#DEE9FC" />
    <path
        d="M124.406 94.7235H92.268C87.5971 94.7235 83.8105 98.51 83.8105 103.181V135.319C83.8105 139.99 87.5971 143.777 92.268 143.777H124.406C129.077 143.777 132.864 139.99 132.864 135.319V103.181C132.864 98.51 129.077 94.7235 124.406 94.7235Z"
        fill="#1485FD" />
    <path
        d="M104.483 124.798H107.866L107.904 123.496C107.904 121.784 108.983 121.337 110.508 120.854C112.039 120.418 113.386 119.497 114.346 118.228C115.306 116.959 115.827 115.412 115.83 113.82C115.863 112.849 115.695 111.881 115.335 110.978C114.975 110.075 114.432 109.257 113.739 108.575C113.046 107.892 112.22 107.362 111.311 107.015C110.403 106.669 109.433 106.516 108.462 106.564C107.436 106.542 106.416 106.728 105.464 107.112C104.512 107.495 103.648 108.068 102.924 108.796C102.2 109.523 101.632 110.39 101.253 111.344C100.875 112.298 100.694 113.319 100.722 114.345H104.22C104.206 113.778 104.306 113.215 104.513 112.688C104.721 112.16 105.031 111.68 105.427 111.274C105.822 110.868 106.294 110.545 106.816 110.324C107.338 110.103 107.899 109.989 108.465 109.988C108.976 109.958 109.487 110.039 109.964 110.224C110.441 110.41 110.873 110.696 111.229 111.063C111.586 111.43 111.859 111.87 112.031 112.352C112.202 112.834 112.268 113.348 112.224 113.858C112.201 114.683 111.914 115.479 111.405 116.129C110.896 116.779 110.191 117.248 109.395 117.467L108.167 117.954C106.965 118.244 105.915 118.975 105.226 120.002C104.537 121.029 104.259 122.277 104.446 123.499L104.483 124.798ZM106.158 132.84C106.489 132.851 106.819 132.797 107.129 132.679C107.439 132.56 107.722 132.381 107.961 132.152C108.201 131.923 108.392 131.648 108.523 131.344C108.654 131.039 108.723 130.712 108.726 130.38C108.723 130.049 108.653 129.722 108.522 129.418C108.39 129.114 108.199 128.839 107.96 128.61C107.721 128.381 107.438 128.203 107.128 128.085C106.819 127.967 106.489 127.912 106.158 127.924C105.827 127.912 105.497 127.967 105.187 128.085C104.878 128.203 104.595 128.381 104.356 128.61C104.117 128.839 103.925 129.114 103.794 129.418C103.663 129.722 103.593 130.049 103.59 130.38C103.593 130.712 103.662 131.039 103.793 131.344C103.924 131.648 104.115 131.923 104.355 132.152C104.594 132.381 104.877 132.56 105.187 132.679C105.496 132.797 105.827 132.851 106.158 132.84Z"
        fill="white" />
    <g filter="url(#filter2_d_2803_3469)">
        <path
            d="M14.4574 162.383H242.809C245.052 162.383 247.203 163.274 248.789 164.86C250.375 166.446 251.266 168.597 251.266 170.841V213.128C251.266 215.371 250.375 217.522 248.789 219.108C247.203 220.694 245.052 221.585 242.809 221.585H14.4574C12.2144 221.585 10.0632 220.694 8.47713 219.108C6.89105 217.522 6 215.371 6 213.128V170.841C6 168.597 6.89105 166.446 8.47713 164.86C10.0632 163.274 12.2144 162.383 14.4574 162.383V162.383Z"
            fill="white" />
    </g>
    <path
        d="M122.713 175.915H78.7346C75.9321 175.915 73.6602 178.187 73.6602 180.99C73.6602 183.792 75.9321 186.064 78.7346 186.064H122.713C125.516 186.064 127.788 183.792 127.788 180.99C127.788 178.187 125.516 175.915 122.713 175.915Z"
        fill="#B4DAFF" />
    <path
        d="M153.16 197.905H78.7346C75.9321 197.905 73.6602 200.176 73.6602 202.979C73.6602 205.782 75.9321 208.053 78.7346 208.053H153.16C155.963 208.053 158.235 205.782 158.235 202.979C158.235 200.176 155.963 197.905 153.16 197.905Z"
        fill="#DEE9FC" />
    <path
        d="M51.6719 167.458H19.5336C14.8627 167.458 11.0762 171.244 11.0762 175.915V208.054C11.0762 212.724 14.8627 216.511 19.5336 216.511H51.6719C56.3429 216.511 60.1294 212.724 60.1294 208.054V175.915C60.1294 171.244 56.3429 167.458 51.6719 167.458Z"
        fill="#1485FD" />
    <path
        d="M31.749 197.533H35.132L35.1692 196.23C35.1692 194.518 36.2484 194.072 37.7741 193.588C39.3046 193.153 40.6517 192.231 41.6118 190.962C42.5719 189.693 43.0927 188.146 43.0955 186.555C43.129 185.583 42.9605 184.615 42.6006 183.712C42.2407 182.809 41.6972 181.991 41.0046 181.309C40.3121 180.627 39.4854 180.096 38.577 179.75C37.6686 179.404 36.6983 179.25 35.7274 179.298C34.7014 179.276 33.6815 179.462 32.7296 179.846C31.7777 180.229 30.9137 180.802 30.1899 181.53C29.4661 182.258 28.8976 183.125 28.519 184.078C28.1404 185.032 27.9594 186.053 27.9871 187.079H31.4851C31.4719 186.513 31.5718 185.949 31.779 185.422C31.9863 184.895 32.2967 184.414 32.6922 184.008C33.0876 183.602 33.56 183.279 34.0818 183.059C34.6036 182.838 35.1642 182.723 35.7308 182.722C36.2417 182.692 36.7531 182.773 37.2301 182.959C37.7071 183.144 38.1385 183.43 38.4951 183.797C38.8517 184.165 39.125 184.604 39.2966 185.086C39.4681 185.569 39.5338 186.082 39.4893 186.592C39.4668 187.417 39.1798 188.213 38.6706 188.863C38.1614 189.513 37.457 189.982 36.6611 190.202L35.4331 190.689C34.2308 190.978 33.1811 191.709 32.4919 192.736C31.8028 193.763 31.5243 195.011 31.7118 196.233L31.749 197.533ZM33.4236 205.574C33.7549 205.586 34.0851 205.531 34.3949 205.413C34.7046 205.295 34.9875 205.116 35.2269 204.886C35.4663 204.657 35.6573 204.382 35.7885 204.078C35.9198 203.773 35.9888 203.446 35.9913 203.114C35.9883 202.783 35.9191 202.456 35.7876 202.152C35.6561 201.848 35.465 201.574 35.2257 201.345C34.9864 201.116 34.7036 200.937 34.3941 200.819C34.0846 200.701 33.7546 200.647 33.4236 200.658C33.0926 200.647 32.7626 200.701 32.4531 200.819C32.1436 200.937 31.8608 201.116 31.6215 201.345C31.3822 201.574 31.1911 201.848 31.0596 202.152C30.9281 202.456 30.8589 202.783 30.8559 203.114C30.8584 203.446 30.9273 203.773 31.0586 204.078C31.1899 204.382 31.3809 204.657 31.6203 204.886C31.8597 205.116 32.1426 205.295 32.4523 205.413C32.7621 205.531 33.0923 205.586 33.4236 205.574Z"
        fill="white" />
    <defs>
        <filter id="filter0_d_2803_3469" x="0" y="13.9149" width="257.266" height="71.2021" filterUnits="userSpaceOnUse"
            color-interpolation-filters="sRGB">
            <feFlood flood-opacity="0" result="BackgroundImageFix" />
            <feColorMatrix in="SourceAlpha" type="matrix" values="0 0 0 0 0 0 0 0 0 0 0 0 0 0 0 0 0 0 127 0"
                result="hardAlpha" />
            <feOffset dy="3" />
            <feGaussianBlur stdDeviation="3" />
            <feColorMatrix type="matrix" values="0 0 0 0 0 0 0 0 0 0 0 0 0 0 0 0 0 0 0.161 0" />
            <feBlend mode="normal" in2="BackgroundImageFix" result="effect1_dropShadow_2803_3469" />
            <feBlend mode="normal" in="SourceGraphic" in2="effect1_dropShadow_2803_3469" result="shape" />
        </filter>
        <filter id="filter1_d_2803_3469" x="72.7344" y="86.6489" width="257.266" height="71.2021"
            filterUnits="userSpaceOnUse" color-interpolation-filters="sRGB">
            <feFlood flood-opacity="0" result="BackgroundImageFix" />
            <feColorMatrix in="SourceAlpha" type="matrix" values="0 0 0 0 0 0 0 0 0 0 0 0 0 0 0 0 0 0 127 0"
                result="hardAlpha" />
            <feOffset dy="3" />
            <feGaussianBlur stdDeviation="3" />
            <feColorMatrix type="matrix" values="0 0 0 0 0 0 0 0 0 0 0 0 0 0 0 0 0 0 0.161 0" />
            <feBlend mode="normal" in2="BackgroundImageFix" result="effect1_dropShadow_2803_3469" />
            <feBlend mode="normal" in="SourceGraphic" in2="effect1_dropShadow_2803_3469" result="shape" />
        </filter>
        <filter id="filter2_d_2803_3469" x="0" y="159.383" width="257.266" height="71.2021" filterUnits="userSpaceOnUse"
            color-interpolation-filters="sRGB">
            <feFlood flood-opacity="0" result="BackgroundImageFix" />
            <feColorMatrix in="SourceAlpha" type="matrix" values="0 0 0 0 0 0 0 0 0 0 0 0 0 0 0 0 0 0 127 0"
                result="hardAlpha" />
            <feOffset dy="3" />
            <feGaussianBlur stdDeviation="3" />
            <feColorMatrix type="matrix" values="0 0 0 0 0 0 0 0 0 0 0 0 0 0 0 0 0 0 0.161 0" />
            <feBlend mode="normal" in2="BackgroundImageFix" result="effect1_dropShadow_2803_3469" />
            <feBlend mode="normal" in="SourceGraphic" in2="effect1_dropShadow_2803_3469" result="shape" />
        </filter>
        <linearGradient id="paint0_linear_2803_3469" x1="168.383" y1="0" x2="168.383" y2="236.809"
            gradientUnits="userSpaceOnUse">
            <stop stop-color="#E3ECFA" />
            <stop offset="1" stop-color="#DAE7FF" />
        </linearGradient>
    </defs>
</svg>